<svg xmlns="http://www.w3.org/2000/svg" viewBox="0 0 127.14 96.36" width="28" height="28" aria-label="Discord">
  <path
    fill="#5865F2"
    d="M107.7 8.07A105.15 105.15 0 0 0 81.47 0a.36.36 0 0 0-.39.19c-1.14 2.03-2.4 4.66-3.29 6.74a97.68 97.68 0 0 0-29.45 0C47.45 4.85 46.18 2.22 45.03.19A.36.36 0 0 0 44.64 0a105.89 105.89 0 0 0-26.24 8.07.33.33 0 0 0-.15.13C1.08 33.86-3.51 58.89-1.25 83.61a.4.4 0 0 0 .15.28 105.73 105.73 0 0 0 32.17 16.27.38.38 0 0 0 .42-.14c2.49-3.41 4.71-7.01 6.6-10.79a.39.39 0 0 0-.21-.58 69.17 69.17 0 0 1-10.04-4.79.39.39 0 0 1-.04-.69c.67-.5 1.33-1.03 1.96-1.57a.38.38 0 0 1 .4-.05c21.07 9.62 43.89 9.62 64.71 0a.38.38 0 0 1 .4.04c.63.55 1.29 1.08 1.97 1.58a.39.39 0 0 1-.03.69 66.57 66.57 0 0 1-10.05 4.78.39.39 0 0 0-.2.59c1.92 3.77 4.14 7.37 6.59 10.78a.38.38 0 0 0 .42.15 105.41 105.41 0 0 0 32.19-16.27.39.39 0 0 0 .15-.27c2.7-29.43-4.52-54.23-19.52-75.4a.31.31 0 0 0-.14-.14z"
  />
  <circle cx="43.15" cy="48.73" r="8.99" fill="#fff"/>
  <circle cx="84.0" cy="48.73" r="8.99" fill="#fff"/>
</svg>