<svg xmlns="http://www.w3.org/2000/svg" viewBox="0 0 24 24" width="28" height="28">
  <path fill="#24292e" d="M12 2C6.48 2 2 6.48 2 12c0 4.42 2.87 8.17 6.84 9.49.5.09.66-.22.66-.48v-1.69c-2.78.61-3.37-1.18-3.37-1.18-.46-1.15-1.11-1.46-1.11-1.46-.91-.62.07-.61.07-.61 1 .07 1.53 1.03 1.53 1.03.9 1.52 2.34 1.08 2.91.83.09-.65.35-1.08.64-1.33-2.22-.25-4.55-1.11-4.55-4.95 0-1.09.39-1.99 1.03-2.69-.1-.25-.45-1.28.1-2.66 0 0 .84-.27 2.75 1.03A9.56 9.56 0 0 1 12 6.8c.85 0 1.71.11 2.51.33 1.91-1.3 2.75-1.03 2.75-1.03.55 1.38.2 2.41.1 2.66.64.7 1.03 1.6 1.03 2.69 0 3.85-2.34 4.69-4.57 4.94.36.31.68.92.68 1.85v2.75c0 .27.18.58.67.48A10.01 10.01 0 0 0 22 12c0-5.52-4.48-10-10-10z"/>
  <path fill="#ffffff" d="M9 9h6v1.5H9zm0 3h6v1.5H9z"/>
</svg>